<?xml version="1.0" standalone="no"?><!DOCTYPE svg PUBLIC "-//W3C//DTD SVG 1.1//EN" "http://www.w3.org/Graphics/SVG/1.1/DTD/svg11.dtd"><svg class="icon" width="200px" height="200.00px" viewBox="0 0 1024 1024" version="1.1" xmlns="http://www.w3.org/2000/svg"><path fill="#333333" d="M949.958168 366.917694c-0.064468-0.481977-0.157589-0.933255-0.255827-1.318018-0.388856-1.87265-0.904603-3.676739-1.641383-5.411243l-75.505671-187.960883c-13.0799-38.97671-50.636261-62.873979-94.572936-62.97324L247.996722 109.25431c-44.51689 0-79.109756 23.677259-91.64321 61.105706L75.178725 362.15011c-0.38374 1.12973-0.807389 2.800789-1.160429 4.511757-5.894244 18.101263-8.856715 36.686551-8.856715 55.339376 0.064468 65.581648 36.043914 125.46348 93.865831 156.290579 0 0 0 0.033769 0.033769 0.033769 0.028653 0 0.028653 0 0.028653 0.029676l0 0c0 0 0.034792 0 0.034792 0.033769 23.804149 12.691043 51.795667 19.130709 83.330894 19.130709 52.857858-0.157589 101.82306-23.382547 135.192052-63.134923 33.211403 39.429011 81.787748 62.491263 134.552485 62.815651 52.341089-0.417509 100.790544-23.577998 133.840264-62.97324 33.374108 39.749306 82.397638 62.875003 135.51644 62.875003 32.150234-0.157589 60.687174-6.925736 84.717474-20.098757 56.951083-31.118741 92.28687-90.7734 92.257194-155.681712C958.623525 402.675082 955.56691 383.957789 949.958168 366.917694L949.958168 366.917694zM835.445088 520.470929c-14.59337 7.990998-32.788777 12.082176-53.953819 12.21009-39.232536 0-74.989925-19.906375-95.865371-53.699016-1.479701-3.188622-3.962242-8.467859-8.596795-13.55983-5.318122-5.956665-14.981203-13.011338-30.891568-13.011338-12.824073 0-24.448832 5.249561-31.020504 13.299911-4.349051 4.89652-6.733355 9.761318-8.439206 13.30605-20.618597 33.367969-56.081273 53.471842-94.51256 53.762461-38.908148-0.226151-74.474179-20.260439-95.216595-53.890374-1.450025-2.963495-3.868097-7.957229-7.632841-12.17939-15.142885-18.067494-49.028647-17.134239-62.235436-1.385557-4.860704 5.317099-7.407714 10.665921-9.049097 14.303774-20.810978 33.374108-56.598043 53.378721-95.637174 53.506635-20.812001 0-38.624692-3.897773-52.991911-11.56643l-0.028653 0-0.033769 0c-36.85028-19.615757-59.753919-57.757448-59.783595-99.501178 0-12.338003 2.058892-24.772196 6.182816-36.883025 0.289596-0.86981 0.545422-1.833765 0.771573-2.835581l79.94989-189.017958c1.641383-4.831029 6.606465-19.552312 31.471782-19.552312L778.07445 173.777859c10.213619 0.60989 27.800159 2.412956 34.047444 20.805862l74.862012 186.411597c0.289596 1.352811 0.64366 2.645247 0.968048 3.707438 4.1536 12.144598 6.212492 24.481577 6.212492 36.719296C894.235053 462.683804 871.718223 500.627998 835.445088 520.470929L835.445088 520.470929zM859.602278 623.841228c-17.811668 0-32.209586 14.395872-32.209586 32.208563l0.064468 175.75284c0 9.983375-8.148587 18.10331-18.101263 18.131963l-606.069469 0.38988c-9.986445 0-18.101263-8.052396-18.101263-17.975397l-0.227174-172.718737c-0.033769-17.784038-14.465456-32.150234-32.213679-32.150234l-0.063445 0c-17.778922 0.033769-32.180933 14.464433-32.146141 32.278147l0.227174 172.624593c0 45.417399 37.010939 82.363869 82.524528 82.363869l606.161566-0.38374c45.455261-0.098237 82.432431-37.142945 82.432431-82.594113l-0.064468-175.71907C891.81698 638.237099 877.385293 623.841228 859.602278 623.841228L859.602278 623.841228zM763.904729 398.3598 248.511445 398.3598c-17.777899 0-32.213679-14.431687-32.213679-32.213679 0-17.783015 14.435781-32.213679 32.213679-32.213679l515.393283 0c17.812691 0 32.209586 14.430664 32.209586 32.213679C796.113291 383.928113 781.71742 398.3598 763.904729 398.3598L763.904729 398.3598zM763.904729 398.3598" /></svg>