<?xml version="1.0" standalone="no"?><!DOCTYPE svg PUBLIC "-//W3C//DTD SVG 1.1//EN" "http://www.w3.org/Graphics/SVG/1.1/DTD/svg11.dtd"><svg class="icon" width="200px" height="200.00px" viewBox="0 0 1024 1024" version="1.1" xmlns="http://www.w3.org/2000/svg"><path fill="#333333" d="M136 384H192c4.4 0 8-3.6 8-8v-176h176c4.4 0 8-3.6 8-8V136c0-4.4-3.6-8-8-8H196C158.4 128 128 158.4 128 196V376c0 4.4 3.6 8 8 8z m512-184h176v176c0 4.4 3.6 8 8 8h56c4.4 0 8-3.6 8-8V196C896 158.4 865.6 128 828 128H648c-4.4 0-8 3.6-8 8V192c0 4.4 3.6 8 8 8z m-272 624h-176v-176c0-4.4-3.6-8-8-8H136c-4.4 0-8 3.6-8 8v180C128 865.6 158.4 896 196 896H376c4.4 0 8-3.6 8-8V832c0-4.4-3.6-8-8-8z m512-184H832c-4.4 0-8 3.6-8 8v176h-176c-4.4 0-8 3.6-8 8v56c0 4.4 3.6 8 8 8h180C865.6 896 896 865.6 896 828V648c0-4.4-3.6-8-8-8z m16-164h-784c-4.4 0-8 3.6-8 8v56c0 4.4 3.6 8 8 8h784c4.4 0 8-3.6 8-8v-56c0-4.4-3.6-8-8-8z"  /></svg>