<?xml version="1.0" standalone="no"?><!DOCTYPE svg PUBLIC "-//W3C//DTD SVG 1.1//EN" "http://www.w3.org/Graphics/SVG/1.1/DTD/svg11.dtd"><svg class="icon" width="200px" height="200.00px" viewBox="0 0 1024 1024" version="1.1" xmlns="http://www.w3.org/2000/svg"><path d="M279.04 202.24h614.4c28.16 0 51.2 23.04 51.2 51.2v358.4c0 28.16-23.04 51.2-51.2 51.2h-614.4c-28.16 0-51.2-23.04-51.2-51.2v-358.4c0-28.16 23.04-51.2 51.2-51.2z" fill="#20DAB4" /><path d="M896 768H128c-71.68 0-128-56.32-128-128V128c0-71.68 56.32-128 128-128h768c71.68 0 128 56.32 128 128v512c0 71.68-56.32 128-128 128zM128 51.2C84.48 51.2 51.2 84.48 51.2 128v512c0 43.52 33.28 76.8 76.8 76.8h768c43.52 0 76.8-33.28 76.8-76.8V128c0-43.52-33.28-76.8-76.8-76.8H128z" fill="#106D5A" /><path d="M842.24 586.24h-665.6c-43.52 0-76.8-33.28-76.8-76.8v-358.4c0-43.52 33.28-76.8 76.8-76.8h665.6c43.52 0 76.8 33.28 76.8 76.8v358.4c0 43.52-33.28 76.8-76.8 76.8z m-665.6-460.8c-15.36 0-25.6 10.24-25.6 25.6v358.4c0 15.36 10.24 25.6 25.6 25.6h665.6c15.36 0 25.6-10.24 25.6-25.6v-358.4c0-15.36-10.24-25.6-25.6-25.6h-665.6z" fill="#106D5A" /><path d="M471.04 652.8a38.4 38.4 0 1 0 76.8 0 38.4 38.4 0 1 0-76.8 0Z" fill="#106D5A" /><path d="M381.44 739.84h51.2v128h-51.2v-128z m204.8 0h51.2v128h-51.2v-128z" fill="#106D5A" /><path d="M688.64 1024h-358.4c-56.32 0-102.4-46.08-102.4-102.4s46.08-102.4 102.4-102.4h358.4c56.32 0 102.4 46.08 102.4 102.4s-46.08 102.4-102.4 102.4z m-358.4-153.6c-28.16 0-51.2 23.04-51.2 51.2s23.04 51.2 51.2 51.2h358.4c28.16 0 51.2-23.04 51.2-51.2s-23.04-51.2-51.2-51.2h-358.4z" fill="#106D5A" /></svg>