<?xml version="1.0" standalone="no"?><!DOCTYPE svg PUBLIC "-//W3C//DTD SVG 1.1//EN" "http://www.w3.org/Graphics/SVG/1.1/DTD/svg11.dtd"><svg class="icon" width="200px" height="200.00px" viewBox="0 0 1024 1024" version="1.1" xmlns="http://www.w3.org/2000/svg"><path d="M512 512m-512 0a512 512 0 1 0 1024 0 512 512 0 1 0-1024 0Z" fill="#67C8B5" /><path d="M328.704 690.112h366.592V546.048A183.872 183.872 0 0 0 512 362.752a183.872 183.872 0 0 0-183.296 183.296v144z m250.048-280.256a49.728 49.728 0 1 1 0.064 99.456 49.728 49.728 0 0 1 0-99.456z m-60.16-99.52a20.16 20.16 0 0 0 19.584-19.648v-26.176a20.16 20.16 0 0 0-19.648-19.648 20.16 20.16 0 0 0-19.648 19.648v26.24c0 10.432 9.216 19.584 19.648 19.584z m171.52 26.24l18.304-18.368a20.544 20.544 0 0 0 0-28.8 19.008 19.008 0 0 0-27.52 0l-18.304 18.304a19.008 19.008 0 0 0 0 27.52c6.528 9.152 19.648 9.152 27.52 1.28z m-356.224 0a20.544 20.544 0 0 0 28.8 0 19.008 19.008 0 0 0 0-27.52l-19.584-19.648c-6.592-6.592-19.648-6.592-27.52 0a20.544 20.544 0 0 0 0 28.8l18.304 18.304z m381.056 392.768H309.12a20.16 20.16 0 0 0-19.648 19.648c0 10.496 9.152 19.648 19.648 19.648h405.888a20.16 20.16 0 0 0 19.648-19.648 20.16 20.16 0 0 0-19.648-19.648z" fill="#FFFFFF" /></svg>