<?xml version="1.0" standalone="no"?><!DOCTYPE svg PUBLIC "-//W3C//DTD SVG 1.1//EN" "http://www.w3.org/Graphics/SVG/1.1/DTD/svg11.dtd"><svg class="icon" width="200px" height="200.00px" viewBox="0 0 1024 1024" version="1.1" xmlns="http://www.w3.org/2000/svg"><path d="M512 885.4L942.6 760V265.2L512 390.5z" fill="#BF9276" /><path d="M512 902.1c-3.6 0-7.1-1.1-10-3.3-4.2-3.2-6.7-8.1-6.7-13.3v-495c0-7.4 4.9-14 12-16L938 249.1c5-1.5 10.5-0.5 14.7 2.7 4.2 3.2 6.7 8.1 6.7 13.3V760c0 7.4-4.9 14-12 16L516.7 901.4c-1.6 0.4-3.1 0.7-4.7 0.7zM528.7 403v460.1L926 747.5V287.4L528.7 403z" fill="#232323" /><path d="M512 885.4L81.4 760V265.2L512 390.5z" fill="#D7AA90" /><path d="M512 902.1c-1.6 0-3.1-0.2-4.7-0.7L76.7 776.1c-7.1-2.1-12-8.6-12-16V265.2c0-5.3 2.5-10.2 6.7-13.3 4.2-3.2 9.6-4.1 14.7-2.7l430.6 125.3c7.1 2.1 12 8.6 12 16v494.9c0 5.3-2.5 10.2-6.7 13.3-2.9 2.2-6.4 3.4-10 3.4zM98 747.5l397.3 115.6V403L98 287.4v460.1z" fill="#232323" /><path d="M512 391.7L81.4 265.2 512 138.6l430.6 126.6z" fill="#E3BA9E" /><path d="M512 408.4c-1.6 0-3.2-0.2-4.7-0.7L76.7 281.2c-7.1-2.1-12-8.6-12-16s4.9-13.9 12-16l430.6-126.5c3.1-0.9 6.3-0.9 9.4 0l430.6 126.5c7.1 2.1 12 8.6 12 16s-4.9 13.9-12 16L516.7 407.7c-1.5 0.4-3.1 0.7-4.7 0.7zM140.6 265.2L512 374.3l371.4-109.1L512 156 140.6 265.2z" fill="#232323" /><path d="M640.9 337l-354-114.5 108-31.5 353.9 114.5zM668.5 477.7V362.8l108-31.5v114.9z" fill="#F3D3C7" /><path d="M340.9 575.3l-188.2-54.8V359.8l188.2 54.8z" fill="#FFFFFF" /><path d="M340.9 592c-1.6 0-3.1-0.2-4.7-0.7L148 536.5c-7.1-2.1-12-8.6-12-16V359.8c0-5.3 2.5-10.2 6.7-13.3 4.2-3.2 9.6-4.1 14.7-2.7l188.2 54.8c7.1 2.1 12 8.6 12 16v160.7c0 5.3-2.5 10.2-6.7 13.3-2.9 2.2-6.4 3.4-10 3.4z m-171.5-84l154.8 45V427.1l-154.8-45V508z" fill="#232323" /><path d="M588.3 703c-7.3 0-14-4.8-16.1-12.2-2.5-8.9 2.7-18.1 11.6-20.6l134.4-37.5c8.9-2.5 18.1 2.7 20.6 11.6 2.5 8.9-2.7 18.1-11.6 20.6l-134.4 37.5c-1.5 0.4-3 0.6-4.5 0.6zM588.3 779.4c-7.3 0-14-4.8-16.1-12.2-2.5-8.9 2.7-18.1 11.6-20.6l74.5-20.8c8.9-2.5 18.1 2.7 20.6 11.6 2.5 8.9-2.7 18.1-11.6 20.6l-74.5 20.8c-1.5 0.4-3 0.6-4.5 0.6z" fill="#71564B" /><path d="M512 902.1c-3.6 0-7.1-1.1-10-3.3-4.2-3.2-6.7-8.1-6.7-13.3v-495c0-7.4 4.9-14 12-16L938 249.1c5-1.5 10.5-0.5 14.7 2.7 4.2 3.2 6.7 8.1 6.7 13.3V760c0 7.4-4.9 14-12 16L516.7 901.4c-1.6 0.4-3.1 0.7-4.7 0.7zM528.7 403v460.1L926 747.5V287.4L528.7 403z" fill="#232323" /><path d="M512 408.4c-1.6 0-3.2-0.2-4.7-0.7L76.7 281.2c-7.1-2.1-12-8.6-12-16s4.9-13.9 12-16l430.6-126.5c3.1-0.9 6.3-0.9 9.4 0l430.6 126.5c7.1 2.1 12 8.6 12 16s-4.9 13.9-12 16L516.7 407.7c-1.5 0.4-3.1 0.7-4.7 0.7zM140.6 265.2L512 374.3l371.4-109.1L512 156 140.6 265.2z" fill="#232323" /><path d="M228.5 488.3l-42-11.6 0.8-65.3 40.4 11.1-0.1 11.4-25.2-7-0.2 15.4 23.5 6.5-0.1 11.3-23.5-6.5-0.2 15.8 26.9 7.4-0.3 11.5zM249.4 494l-17-4.7 17.4-18.5L234 443l17.1 4.7 7.3 15.5c0.7 1.5 1.4 3.1 2 4.9l0.2 0.1c0.3-0.9 1-2.1 2.2-3.8l7.9-11.2 16.1 4.4" fill="#232323" /><path d="M272.6 490.4m-9 0a9 9 0 1 0 18 0 9 9 0 1 0-18 0Z" fill="#CD2939" /></svg>