<?xml version="1.0" standalone="no"?><!DOCTYPE svg PUBLIC "-//W3C//DTD SVG 1.1//EN" "http://www.w3.org/Graphics/SVG/1.1/DTD/svg11.dtd"><svg class="icon" width="200px" height="200.00px" viewBox="0 0 1024 1024" version="1.1" xmlns="http://www.w3.org/2000/svg"><path d="M511.993387 512.443718m-465.496868 0a465.496867 465.496867 0 1 0 930.993735 0 465.496867 465.496867 0 1 0-930.993735 0Z" fill="#FFE41F" /><path d="M452.840645 2.909628c-22.360493 0-21.822211 17.050421-21.822211 29.096282v206.045321c0 58.367142-52.867944 105.866822-117.839942 105.866822s-117.839942-47.485132-117.839942-105.866822V32.00591c0-12.045861 2.414991-29.096282-21.822212-29.096282-21.822211 0-21.822211 17.050421-21.822211 29.096282v206.045321c0 74.806541 59.647378 136.941651 137.232614 147.823661a84.946595 84.946595 0 0 0-7.681419 33.344339l-20.527427 543.678577c-1.25114 33.053376 13.602512 61.102192 32.355066 61.102192H337.459339c18.912583 0 33.780783-28.427067 32.325969-61.698666l-23.917143-543.722221a84.539247 84.539247 0 0 0-7.710515-32.820606c77.221532-11.158424 136.490659-73.148053 136.490659-147.707276V32.00591c0.014548-12.045861 0.014548-29.096282-21.807664-29.096282z" fill="#2674FD" /><path d="M266.580796 255.43626c21.822211 0 21.822211-17.050421 21.822212-29.096282V30.958444c0-12.045861 0-29.096282-21.822212-29.096282s-21.822211 17.050421-21.822211 29.096282v195.381534c0 12.060409 0 29.096282 21.822211 29.096282zM360.096246 255.43626c21.822211 0 21.822211-17.050421 21.822212-29.096282V30.958444c0-12.045861 0-29.096282-21.822212-29.096282s-21.822211 17.050421-21.822211 29.096282v195.381534c0 12.060409 0 29.096282 21.822211 29.096282zM819.759309 962.272238L799.842904 509.039453V0S612.419204 0 612.419204 186.521716v294.628951c0 29.096282 61.480444 50.380212 113.999233 63.284413l-15.697445 418.462728c-1.25114 33.053376 13.602512 61.102192 32.355066 61.102192h44.357282c18.898035-0.014548 33.780783-28.441616 32.325969-61.727762z" fill="#2674FD" /></svg>