<?xml version="1.0" standalone="no"?><!DOCTYPE svg PUBLIC "-//W3C//DTD SVG 1.1//EN" "http://www.w3.org/Graphics/SVG/1.1/DTD/svg11.dtd"><svg class="icon" width="200px" height="200.00px" viewBox="0 0 1024 1024" version="1.1" xmlns="http://www.w3.org/2000/svg"><path d="M348.16 122.88c-28.672 0-51.2 22.528-51.2 51.2v675.84c0 28.672 22.528 51.2 51.2 51.2h327.68c28.672 0 51.2-22.528 51.2-51.2v-675.84C727.04 145.408 704.512 122.88 675.84 122.88H348.16z" fill="#304ECE" opacity=".3" /><path d="M348.16 122.88c-28.672 0-51.2 22.528-51.2 51.2v675.84c0 28.672 22.528 51.2 51.2 51.2h327.68c28.672 0 51.2-22.528 51.2-51.2v-675.84C727.04 145.408 704.512 122.88 675.84 122.88H348.16z m0-61.44h327.68c61.44 0 112.64 51.2 112.64 112.64v675.84c0 61.44-51.2 112.64-112.64 112.64H348.16c-61.44 0-112.64-51.2-112.64-112.64v-675.84C235.52 112.64 286.72 61.44 348.16 61.44z m61.44 30.72h204.8c12.288 0 20.48 8.192 20.48 20.48v40.96c0 12.288-8.192 20.48-20.48 20.48H409.6c-12.288 0-20.48-8.192-20.48-20.48v-40.96c0-12.288 8.192-20.48 20.48-20.48z" fill="#304ECE" /></svg>