<?xml version="1.0" standalone="no"?><!DOCTYPE svg PUBLIC "-//W3C//DTD SVG 1.1//EN" "http://www.w3.org/Graphics/SVG/1.1/DTD/svg11.dtd"><svg class="icon" width="200px" height="180.28px" viewBox="0 0 1136 1024" version="1.1" xmlns="http://www.w3.org/2000/svg"><path d="M0 0m382.379747 0l0 0q382.379747 0 382.379747 382.379747l0 0q0 382.379747-382.379747 382.379747l0 0q-382.379747 0-382.379747-382.379747l0 0q0-382.379747 382.379747-382.379747Z" fill="#FCF673" /><path d="M1115.684726 340.041451l-195.527831-194.192742a70.638717 70.638717 0 0 0-55.365131-20.294211 66.089046 66.089046 0 0 0-5.686009-0.25492h-104.171477l-7.30194 4.039831c-38.59227 21.318211-87.839325 33.057485-138.659106 33.057486-50.824101 0-100.066835-11.739274-138.650464-33.057486L463.012186 125.299578h-104.171477c-26.252422-0.069131-50.400675 14.258228-62.78373 37.244219L102.78454 354.502751C89.437975 367.758582 82.092827 385.373975 82.092827 404.112743s7.349468 36.358481 20.691713 49.609991l141.212625 140.249114a70.254177 70.254177 0 0 0 43.535122 20.238042v338.956962c0 39.054582 31.990278 70.833148 71.312743 70.833148h500.260725c39.322464 0 71.321384-31.778565 71.321384-70.833148v-353.362093a70.267139 70.267139 0 0 0 44.040642-20.298531l141.229907-140.249114c27.5227-27.349873 27.5227-71.865789-0.008642-99.215663z m-45.583123 53.943629l-141.221265 140.257755a6.001418 6.001418 0 0 1-4.320676 1.771477c-1.123376 0-2.773873-0.285165-4.251544-1.672101l-54.362734-50.962363v469.791325a6.826667 6.826667 0 0 1-6.852591 6.809384H358.836388a6.869873 6.869873 0 0 1-4.839156-1.996152 6.774819 6.774819 0 0 1-2.004793-4.813232V500.092219l-53.939308 48.780422c-1.456068 1.322127-3.076321 1.59865-4.165131 1.59865a6.01438 6.01438 0 0 1-4.307713-1.771477L148.363342 408.4507a5.966852 5.966852 0 0 1-1.806042-4.333637c0-1.162262 0.315409-2.851646 1.806042-4.337958l195.108726-193.782278 6.234734-5.552068 2.786835-6.85259a6.852591 6.852591 0 0 1 6.351393-4.268827h87.709704c47.177451 24.299477 103.125873 37.092996 162.414177 37.092996 59.301266 0 115.249688-12.789198 162.43146-37.092996h87.666498c0.345654 0.012962 0.691308 0.069131 1.028321 0.116658l4.61016 0.656743 4.597199-0.661064c1.46903-0.207392 3.413333-0.164186 5.271223 1.685064l195.532152 194.192742a6.109435 6.109435 0 0 1-0.004321 8.675916z" fill="#00C1A5" /></svg>